<?xml version="1.0"?>
<svg id="Layer_1" data-name="Layer 1" xmlns="http://www.w3.org/2000/svg" viewBox="0 0 1256.14 1119.05">
  <defs>
    
  </defs>
  <path class="cls-1" d="M1014.62,260.04c-7.96,9.82-17.82,19.31-29.43,28.4-40.73,31.96-102.91,59.1-179.28,78.64-66.75,17.1-144.36,28.4-227.99,32.05-1.31.04-2.65.09-3.98.15-18.02.74-36.32,1.12-54.83,1.12-1.97,0-3.94,0-5.88-.02-.15.02-.33.02-.48,0-220.45-1.01-407.86-55.03-480.49-130.55-16.05-16.7-26.5-34.44-30.46-52.89-1.18-5.53-1.79-11.11-1.79-16.75C0,89.64,232.41,0,519.11,0c14.8,0,29.45.24,43.95.7C302.88,8.37,99.26,77.11,99.26,160.83c0,13.58,5.36,26.78,15.46,39.38,3.65,4.55,7.89,9.01,12.75,13.4,69.55,62.9,259.96,108.05,483.97,108.05,68.85,0,134.5-4.26,194.48-12,67.3-8.68,127.42-21.71,176.77-38,11.22-3.72,21.89-7.59,31.94-11.61Z"></path>
  <path class="cls-1" d="M962.36,923.68c-28.63,64.73-94.91,119.47-156.46,151.66-53.35,27.9-113.93,43.7-178.01,43.7h-241.18c-109.49,0-208.75-46.13-279.28-119.9,37.45,39.17,134.71,54.02,185.23,63.4,72.26,13.41,146.25,14.16,219.16,16.48,84.95,2.71,169.29-24.82,246.73-57.2,40.43-16.9,79.87-36.12,118.68-56.45,24.83-13.01,57.74-39.73,85.18-41.8-.02.04-.03.07-.05.11Z"></path>
  <path class="cls-1" d="M1010.42,308.48v355.07c0,98.76-26.89,203.28-80.32,257.74-3.25-36.51,12.06-90.31,16.95-126.88,6.32-47.33,11.91-94.91,16.74-142.69,6.66-65.87,11.9-132.11,15.69-198.56,1.65-28.88-.22-63.13,4.15-91.13,3.6-23.08,18.69-34.11,26.79-53.56Z"></path>
  <path class="cls-1" d="M1256.14,615.01c0,78.31-9.45,168.23-55.83,221.59-33.57,38.62-95.88,62.7-138.84,50.56,8.19-31.93,43.27-63.48,59.96-89.41,21.69-33.7,53.54-75.24,59.64-120.73,5.37-40.12,5.57-90.03-3.04-129.3-13.27-60.52-45.43-108.64-86.33-137.12-12.43-8.66-27.47-18.74-29-37.76-.75-9.38,2.56-19.17,8.27-24.44,32.74-30.17,107.68,23.07,132.05,53.86,42.45,53.64,53.12,137.01,53.12,212.74Z"></path>
  <path class="cls-1" d="M944.93,233.91c-43.99,11.54-97.58,20.78-157.57,26.93-53.46,5.49-111.99,8.51-173.36,8.51-199.69,0-369.42-32-431.42-76.58,77.98-19.59,200.53-32.2,338.35-32.2,219.86,0,400.88,32.11,423.99,73.34Z"></path>
</svg>