<?xml version="1.0"?>

<svg xmlns="http://www.w3.org/2000/svg" viewBox="0 0 1571.43 958.69" fill="#6F4E37" aria-label="GoodSip wordmark">
  <path d="M660.79,54.29c7.67,7.95,11.8,20.06,7.71,32.89-6.79,21.29-33.02,35.13-53.44,35.03-20.41-.1-36.95-9.81-54.6-16.5-72.18-27.34-168.78-20.85-253.83,16.65-102.99,45.11-156,141.21-79.68,204.05,43.07,34.7,112.09,45.54,172.87,40.64,25.35-3.29,60.8-6.49,79.55-29.82,25.39-31.59-169.85-20.33-144.31-59.5,9.01-13.82,23.37-24.11,37.91-30.79,80.57-37.02,316.84,32.62,229.08,105.39-38.34,33.51-106.91,61.11-159.65,73.99-144.72,35.08-292.56,20.13-387.25-55.42C13.49,336.69-14.93,280.68,8.39,215.68,69.69,57.9,311.74-4.7,444.42.27c39.53,1.48,78.54,4.95,115.35,13.75,32,7.65,76.96,17.52,99.88,39.14.39.37.77.74,1.14,1.13Z"></path>
  <path d="M850.46,314.13c100.63-103.49,100.28-267.85-38.72-262.09-122.78,6.26-249.21,154.93-224.8,267.55,25.44,112.09,176.6,88.77,262.88-4.79l.64-.68ZM706.2,191.83c.11-.31.22-.62.33-.93,23.13-64.73,113.23-79.22,111.71-17.94-.23,9.17-1.52,18.3-3.68,26.43-10.55,49.51-76.24,130.67-105.57,76.12-11.64-21.1-13.3-53.58-3.02-83.01l.23-.67Z"></path>
  <path d="M1163.76,297.3c95.95-107.72,86.01-269.31-54.52-255.42-124.07,13.42-243.54,167.09-212.23,276.38,32.32,108.71,184.16,76.83,266.14-20.26l.61-.7ZM1009.73,174.32c.12-.3.25-.6.37-.9,26.15-62.78,113.41-49.85,108.2,16.07-.78,9.87-2.58,19.35-5.15,27.46-13.15,50.29-81.11,117.34-105.88,48.92-9.86-26.56-9.46-62.28,2.19-90.9l.26-.65Z"></path>
  <path d="M1228.07,428.9c23.08,11.71,66.27,6.34,101.81-4.16,103.25-28.67,197.06-101.11,228.68-178.33,54.29-124.74-70.03-222.4-243.92-176.48-26.6,7.54-50.73,19.31-68.96,36.7-28.46,27.99-35.83,60.84-44.32,90.75-13.15,52.16-15.56,106.26-10.61,154.11,4.74,31.48,7.26,62.87,37.33,77.42ZM1341.81,343.46c-53.38.22-34.09-113.23-24.23-153.34,26.45-107.55,127.34-27.78,138.6,26.17,13.26,63.57-72.3,127-114.37,127.17Z"></path>
  <path d="M1139.44,453.06c-22.36-1.02-44.69-1.67-67.23-2.87-43.07-2.11-97.43-6.56-125.2,25.68-31,38.28-5.93,86.27.05,127.82,13.37,61.25-3.81,122.66-25.88,181.14-12.21,38.51-36.53,81.33-26.53,120.86,6.86,27.23,37.68,50.74,71.11,52.8,38.55,2.62,69.42-21.9,84.84-51.76,9.76-18.85,12.32-39.48,9.7-60.14-4.1-36.97-23.51-77.02-5.98-113.06,21.02-43,84.31-50.61,133.69-58.99,57.61-9.88,120.88-25.03,157.53-65.3,32.83-36.01,17.16-77.84-23.36-105.5-49.58-34.67-118.48-47.61-181.9-50.66l-.85-.04ZM1222.24,560.94c-2.67,23.17-49.07,35.91-80.75,40.56-35.46,5.49-93.7,7.79-97.06-24.72-.46-36.35,51.48-80.14,108.59-67.33,31.39,6.54,69.48,27.5,69.25,51.1l-.04.39Z"></path>
  <path d="M819.18,695.06c32.11,49.02-19.84,110.57-82.96,139.05-55.17,25.81-124.24,33.3-190.86,29.71-69.44-2.78-134.86-22.79-192.29-50.04-22.83-10.61-46.97-21.85-64.76-34.97-23.59-16.44-21.3-37.1.96-53.16,20.27-14.89,64.93-27.71,88.45-14.98,18.15,12.01,17.74,32.6,34.7,45.4,18.39,15.61,57.63,21.38,88.55,24.16,30.55,2.6,61.61,3.11,91.1-2.85,57.83-11.16,93.12-49.16,34.59-73.7-24.65-10.63-56.83-17.3-85.8-23.16-30.2-6.01-60.35-10.58-91.17-13.77-59.99-6.97-131.55-7.41-167.1-44.58-40.03-44.5,4.98-103.63,63.12-130.48,69.61-33.53,155.51-32.64,239.5-24.8,60.25,6.62,160.32,16.31,205.73,43.58,26.47,15.86,23.08,36.17-4.72,47.34-75.51,28.66-199.62-.86-285.17,3.41-25.19.32-62.01,7.03-66.44,15.22-6.44,9.84,10.6,15.89,24.97,20.45,92.08,24.12,314.76,33.62,359.38,97.87l.22.32Z"></path>
  <path d="M926.75,668.05c5.95,65.74,6.61,134.16-13.14,198.71-11.13,32.46-25.92,63.56-63.91,68.55-42.82,5.09-90.59-18.63-99.59-50.24-5.54-20.65,5.48-40.61,15.74-59.96,13.39-24.06,27.39-48.12,37.29-74.23,24.14-58.8,19.23-118.31,1.36-176.86-8.85-33.32-21.04-66.36-23.16-99.48-2.98-62.45,65.4-43.58,92.24,5.84,33.71,59.13,45.03,121.37,53.09,187.02l.07.65Z"></path>
</svg>